<svg xmlns="http://www.w3.org/2000/svg" width="5000" height="5000" viewBox="0 0 5000 5000" version="1.1">
	<path d="M 3450.500 1163.399 C 3377.900 1177.796, 3317.825 1189.850, 3317 1190.187 C 3316.175 1190.523, 3301.100 1213.814, 3283.500 1241.943 C 3253.292 1290.223, 3249.517 1295.758, 3216.084 1340.793 C 3196.605 1367.032, 3173.683 1397.950, 3165.146 1409.500 C 3149.169 1431.117, 3128.001 1459.690, 3088.294 1513.240 C 3064.746 1544.996, 3002.169 1629.434, 2961 1685.003 C 2948.075 1702.448, 2923.550 1735.670, 2906.500 1758.829 L 2875.500 1800.936 2866 1803.928 C 2860.775 1805.574, 2571.677 1893.337, 2223.560 1998.956 C 1602.476 2187.395, 1590.582 2190.958, 1588.560 2189.149 C 1587.427 2188.135, 1551.962 2157.265, 1509.750 2120.550 C 1467.537 2083.835, 1433 2053.413, 1433 2052.944 C 1433 2052.476, 1487.036 1983.183, 1553.080 1898.960 C 1619.125 1814.737, 1672.911 1745.578, 1672.606 1745.273 C 1672.301 1744.968, 1620.178 1747.521, 1556.776 1750.946 C 1473.671 1755.436, 1440.942 1757.533, 1439.500 1758.460 C 1438.400 1759.168, 1425.350 1769.096, 1410.500 1780.522 C 1394 1793.218, 1375.139 1806.626, 1362 1815.002 C 1350.175 1822.540, 1334.200 1832.806, 1326.500 1837.814 C 1278.048 1869.331, 1246.414 1889.500, 1245.435 1889.500 C 1244.813 1889.500, 1210.940 1860.475, 1170.162 1825 C 1115.304 1777.276, 1095.463 1760.568, 1093.875 1760.762 C 1090.681 1761.153, 578.792 1880.944, 576.739 1881.782 C 575.334 1882.355, 578.423 1885.495, 591.989 1897.290 C 601.345 1905.424, 609 1912.470, 609 1912.946 C 609 1913.901, 625.803 1928.207, 739.625 2024.154 C 754.406 2036.614, 776.008 2054.839, 787.629 2064.654 C 799.250 2074.469, 836.504 2105.874, 870.415 2134.443 C 904.327 2163.011, 931.944 2186.892, 931.786 2187.510 C 931.629 2188.128, 903.825 2224.293, 870 2267.875 C 836.175 2311.458, 804.675 2352.058, 800 2358.098 C 795.325 2364.138, 784.617 2377.949, 776.204 2388.790 C 767.791 2399.630, 752.941 2418.791, 743.204 2431.369 C 733.467 2443.946, 713.601 2469.596, 699.057 2488.369 C 666.852 2529.939, 647.600 2555.933, 648.414 2556.747 C 649.070 2557.403, 895.639 2554.367, 920.525 2553.396 L 935.549 2552.811 1031.479 2452.405 C 1084.240 2397.182, 1127.654 2352.014, 1127.954 2352.032 C 1128.254 2352.050, 1222.775 2431.675, 1338 2528.977 L 1547.500 2705.890 1613.500 2705.937 C 1752.774 2706.035, 1921.407 2701.230, 2087.364 2692.434 C 2113.690 2691.039, 2135.901 2690.033, 2136.723 2690.199 C 2139.362 2690.731, 2051.137 2811.834, 1946.726 2951 C 1848.122 3082.428, 1768.158 3185.564, 1697.462 3272.500 C 1689.858 3281.850, 1678.224 3296.250, 1671.607 3304.500 C 1664.991 3312.750, 1648.997 3332.325, 1636.066 3348 C 1478.801 3538.639, 1349.127 3679.047, 1235 3782.266 C 1223.725 3792.464, 1208.706 3806.650, 1201.625 3813.792 L 1188.750 3826.778 1193.625 3827.379 C 1196.306 3827.710, 1300.024 3835.905, 1424.109 3845.590 L 1649.717 3863.199 1675.359 3850.675 C 1789.923 3794.719, 1908.518 3716.873, 2033.915 3615.316 L 2046.330 3605.261 2056.915 3612.486 C 2115.175 3652.251, 2190.419 3680.033, 2267 3690.056 C 2287.979 3692.801, 2332.400 3693.840, 2352.166 3692.047 C 2443.757 3683.740, 2516.677 3642.994, 2562.533 3574.500 C 2592.994 3529.002, 2609.241 3475.674, 2609.300 3421 C 2609.322 3400.638, 2608.222 3388.305, 2604.884 3371.500 C 2590.887 3301.039, 2546.090 3240.075, 2478.388 3199.348 L 2470.328 3194.500 2491.769 3170.500 C 2503.561 3157.300, 2514.701 3144.774, 2516.524 3142.665 L 2519.838 3138.830 2531.169 3145.570 C 2601.859 3187.616, 2696.720 3209.225, 2788 3204.076 C 2883.190 3198.706, 2957.859 3169.649, 3012.732 3116.622 C 3053.959 3076.782, 3079.622 3026.942, 3089.092 2968.322 C 3091.748 2951.884, 3092.808 2912.789, 3091.069 2895.393 C 3080.825 2792.886, 3013.389 2711.546, 2910.416 2677.490 C 2902.949 2675.021, 2896.200 2673, 2895.420 2673 C 2894.639 2673, 2894 2672.553, 2894 2672.006 C 2894 2671.460, 2902.235 2659.648, 2912.300 2645.756 C 2922.366 2631.865, 2932.094 2618.394, 2933.919 2615.820 C 2937.772 2610.387, 2931.800 2611.788, 2984.500 2603.957 C 3302.156 2556.752, 3590.221 2493.386, 3846.500 2414.343 C 3933.340 2387.560, 4005.980 2359.957, 4106 2315.736 C 4304.382 2228.027, 4476.464 2131.130, 4577 2050.521 C 4599.151 2032.761, 4610.814 2022.390, 4627.525 2005.595 C 4668.012 1964.905, 4687.136 1931.067, 4687.128 1900.133 C 4687.124 1885.239, 4684.467 1876.210, 4676.432 1863.788 C 4652.102 1826.178, 4580.958 1798.765, 4470.657 1784.500 C 4419.066 1777.828, 4368.035 1774.170, 4295.739 1771.962 L 4260.979 1770.901 4242.239 1752.167 C 4209.360 1719.297, 4177.864 1697.427, 4129.546 1673.916 C 4055.512 1637.892, 3971.024 1617.284, 3861 1608.412 C 3834.294 1606.258, 3750.366 1605.391, 3717 1606.924 C 3648.620 1610.065, 3580.289 1617.525, 3505.067 1630.062 C 3485.579 1633.310, 3469.478 1635.812, 3469.289 1635.622 C 3469.099 1635.432, 3470.097 1630.361, 3471.506 1624.352 L 3474.068 1613.427 3499.784 1613.403 C 3527.229 1613.378, 3539.271 1612.239, 3562.500 1607.469 C 3625.141 1594.606, 3673.543 1565.186, 3701.948 1522.709 C 3708.254 1513.279, 3716.978 1495.332, 3720.420 1484.708 C 3730.897 1452.370, 3730.128 1413.546, 3718.341 1379.683 C 3703.984 1338.436, 3673.640 1306.345, 3633.490 1289.945 C 3613.785 1281.897, 3595.099 1278.190, 3569.729 1277.297 C 3554.975 1276.777, 3553.017 1276.513, 3553.441 1275.103 C 3553.707 1274.221, 3560.930 1243.575, 3569.492 1207 C 3578.055 1170.425, 3585.303 1139.713, 3585.598 1138.750 C 3585.979 1137.508, 3585.607 1137.033, 3584.317 1137.112 C 3583.318 1137.174, 3523.100 1149.003, 3450.500 1163.399 M 3420.508 1230.851 L 3347.516 1245.500 3179.361 1502.500 C 3086.875 1643.850, 3011.287 1759.590, 3011.386 1759.700 C 3011.776 1760.132, 3048.907 1748.491, 3074 1740.070 C 3167.902 1708.557, 3267.785 1680.241, 3360 1658.990 C 3372.375 1656.138, 3382.580 1653.732, 3382.677 1653.642 C 3382.774 1653.553, 3408.090 1555.840, 3438.935 1436.503 C 3469.779 1317.166, 3495.267 1218.733, 3495.575 1217.763 C 3495.923 1216.668, 3495.636 1216.038, 3494.817 1216.101 C 3494.093 1216.156, 3460.654 1222.793, 3420.508 1230.851 M 3553.141 1315.079 C 3548.543 1315.523, 3544.528 1316.138, 3544.219 1316.447 C 3543.910 1316.757, 3530.094 1374.720, 3513.516 1445.255 C 3493.711 1529.521, 3483.739 1573.721, 3484.437 1574.144 C 3489.069 1576.953, 3526.712 1578.159, 3545.830 1576.112 C 3573.916 1573.104, 3602.429 1564.435, 3626.233 1551.666 C 3680.287 1522.672, 3706.666 1469.241, 3695.054 1412.266 C 3689.890 1386.924, 3679.496 1367.286, 3662.081 1349.965 C 3635.319 1323.347, 3596.452 1310.901, 3553.141 1315.079 M 3609.536 1355.141 C 3600.767 1356.377, 3590.495 1361.670, 3582.685 1368.976 C 3574.432 1376.696, 3570.293 1382.267, 3565.183 1392.532 C 3540.093 1442.939, 3559.613 1512.190, 3602.387 1524.524 C 3606.706 1525.769, 3610.865 1526.118, 3617.999 1525.831 C 3626.868 1525.475, 3628.419 1525.099, 3635.612 1521.564 C 3641.606 1518.618, 3645.442 1515.744, 3651.587 1509.594 C 3668.038 1493.131, 3676.502 1471.829, 3677.650 1444 C 3678.897 1413.763, 3670.308 1388.323, 3653 1370.991 C 3639.850 1357.822, 3626.094 1352.806, 3609.536 1355.141 M 3610.379 1397.102 C 3618.292 1424.594, 3613.168 1459.838, 3598.292 1480.249 C 3595.310 1484.341, 3595.062 1485.087, 3596.501 1485.639 C 3599.276 1486.704, 3608.518 1484.092, 3613.385 1480.868 C 3632.116 1468.461, 3638.325 1435.336, 3626.349 1411.702 C 3623.439 1405.959, 3617.500 1399.274, 3612.933 1396.602 L 3609.689 1394.703 3610.379 1397.102 M 3758.500 1699.007 C 3652.011 1704.137, 3545.798 1716.931, 3422 1739.541 C 3313.199 1759.413, 3183.240 1789.506, 3087.500 1816.999 C 3078.150 1819.684, 2738.850 1909.882, 2333.500 2017.439 C 1928.150 2124.997, 1595.677 2213.347, 1594.670 2213.774 C 1593.419 2214.305, 1588.313 2225.765, 1578.518 2250.025 C 1570.640 2269.536, 1563.787 2285.500, 1563.288 2285.500 C 1562.790 2285.500, 1454.051 2183.510, 1321.647 2058.855 C 1156.209 1903.100, 1080.378 1832.336, 1079.206 1832.613 C 1078.268 1832.834, 994.250 1846.971, 892.500 1864.028 C 790.750 1881.085, 706.207 1895.304, 704.626 1895.627 L 701.752 1896.213 704.626 1899.038 C 706.207 1900.592, 777.250 1962.192, 862.500 2035.928 L 1017.500 2169.992 1031 2169.994 C 1047.337 2169.998, 1287.929 2173.904, 1293.280 2174.253 L 1297.061 2174.500 1234.967 2239.497 L 1172.873 2304.494 1175.687 2306.898 C 1177.234 2308.221, 1265.940 2384.947, 1372.810 2477.401 L 1567.120 2645.500 1577.810 2646.183 C 1600.450 2647.629, 1667.426 2650.068, 1710 2650.997 C 1840.857 2653.853, 1993.741 2649.805, 2150.224 2639.339 L 2175.947 2637.619 2200.300 2603.059 C 2213.694 2584.052, 2227.543 2564.335, 2231.076 2559.245 L 2237.500 2549.990 2247 2547.056 C 2289.542 2533.917, 2362.250 2514.728, 2419 2501.664 C 2602.956 2459.315, 2773.355 2436.949, 2950.500 2431.902 C 2987.126 2430.858, 3058.483 2431.149, 3059.680 2432.347 C 3060.172 2432.839, 3027.001 2482.800, 3005.135 2514.500 C 2997.729 2525.237, 2992.567 2533.618, 2993.265 2533.771 C 2995.639 2534.292, 3327.399 2476.398, 3418.500 2459.565 C 3633.103 2419.913, 3747.908 2390.984, 3845.721 2351.912 C 3899.691 2330.353, 4029.391 2273.099, 4115 2233.042 C 4160.322 2211.836, 4253.658 2165.248, 4289.500 2145.941 C 4437.871 2066.019, 4524.560 2002.696, 4556.482 1950.920 C 4565.791 1935.821, 4570.138 1919.364, 4568.026 1907.214 C 4560.261 1862.544, 4489.210 1835.737, 4354 1826.462 C 4327.226 1824.626, 4250.997 1823.412, 4228.712 1824.467 L 4212.925 1825.214 4204.847 1835.189 C 4162.435 1887.560, 4095.827 1940.902, 4015 1987.225 C 3931.208 2035.247, 3831.798 2077.229, 3717.456 2112.880 C 3703.133 2117.346, 3690.983 2120.986, 3690.456 2120.970 C 3689.930 2120.953, 3696.925 2117.894, 3706 2114.171 C 3761.709 2091.318, 3830.159 2057.214, 3885 2024.989 C 3941.177 1991.978, 3995.970 1954.337, 4042 1917.134 C 4060.659 1902.054, 4076 1888.941, 4076 1888.073 C 4076 1887.549, 3981.999 1829.850, 3968.595 1822.147 L 3964.500 1819.793 3969.788 1824.647 C 3972.696 1827.316, 3989.649 1842.775, 4007.461 1859 C 4025.273 1875.225, 4039.881 1889.006, 4039.923 1889.625 C 4040.009 1890.881, 4020.844 1908.331, 4008.500 1918.237 C 3963.742 1954.156, 3903.103 1991.174, 3824 2030.866 C 3782.805 2051.537, 3770.202 2057.535, 3769.478 2056.812 C 3769.192 2056.526, 3764.021 2038.338, 3757.987 2016.396 C 3751.953 1994.453, 3746.824 1975.996, 3746.589 1975.380 C 3746.354 1974.764, 3770.928 1953.164, 3801.198 1927.380 C 3831.467 1901.596, 3857.643 1879.266, 3859.366 1877.758 L 3862.500 1875.015 3854 1877.946 C 3849.325 1879.558, 3820.353 1889.679, 3789.617 1900.438 C 3758.881 1911.197, 3733.196 1920, 3732.538 1920 C 3731.845 1920, 3729.736 1914.009, 3727.523 1905.750 C 3725.422 1897.912, 3723.517 1890.991, 3723.290 1890.369 C 3723.063 1889.746, 3728.634 1886.193, 3735.689 1882.462 C 3788.922 1854.311, 3854.188 1812.774, 3908.883 1772.236 C 3917.344 1765.966, 3924.774 1760.640, 3925.396 1760.402 C 3926.017 1760.163, 3966.570 1783.127, 4015.513 1811.432 L 4104.500 1862.896 4114.787 1852.698 L 4125.075 1842.500 4122.699 1840.500 C 4121.393 1839.400, 4086.740 1815.100, 4045.694 1786.500 C 4004.648 1757.900, 3971.050 1734.161, 3971.032 1733.747 C 3971.014 1733.333, 3973.921 1727.951, 3977.491 1721.788 C 3981.061 1715.625, 3983.649 1710.285, 3983.241 1709.921 C 3981.421 1708.298, 3935.937 1702.914, 3903 1700.424 C 3878.331 1698.559, 3786.494 1697.658, 3758.500 1699.007 M 4085.279 1750.638 C 4077.105 1761.926, 4077.070 1762, 4079.279 1763.413 C 4092.607 1771.946, 4098.404 1774.828, 4099.956 1773.693 C 4109.050 1767.039, 4125 1754.474, 4125 1753.963 C 4125 1753.229, 4106.141 1744.154, 4098.500 1741.211 L 4093.500 1739.285 4085.279 1750.638 M 4141.556 1776.944 L 4132.653 1785.888 4144.324 1797.820 L 4155.995 1809.752 4165.597 1798.461 C 4170.879 1792.251, 4175.268 1786.892, 4175.350 1786.551 C 4175.499 1785.935, 4151.972 1768.039, 4150.979 1768.013 C 4150.693 1768.006, 4146.452 1772.025, 4141.556 1776.944 M 1511.500 1796.055 C 1494.450 1796.429, 1470.756 1796.795, 1458.846 1796.868 L 1437.191 1797 1357.596 1857.153 C 1313.818 1890.238, 1278 1917.654, 1278 1918.079 C 1278 1918.634, 1360.222 1990.693, 1379.086 2006.670 C 1380.483 2007.853, 1391.615 1995.424, 1472.086 1902.839 C 1522.364 1844.993, 1563.860 1797.065, 1564.300 1796.332 C 1565.189 1794.851, 1566.179 1794.856, 1511.500 1796.055 M 3860 1940.067 C 3817.925 1962.557, 3783.153 1981.083, 3782.729 1981.236 C 3781.923 1981.527, 3797.077 2020, 3797.998 2020 C 3798.513 2020, 3931.570 1904.760, 3935.472 1900.934 C 3936.557 1899.870, 3937.232 1899.040, 3936.972 1899.088 C 3936.713 1899.137, 3902.075 1917.578, 3860 1940.067 M 3460.978 2028.997 C 3434.015 2032.372, 3415.070 2055.164, 3415.015 2084.292 C 3414.986 2099.222, 3419.914 2115.392, 3428.488 2128.505 C 3434.187 2137.221, 3447.333 2149.983, 3455.694 2154.917 C 3466.724 2161.425, 3475.739 2164.217, 3487.511 2164.770 C 3499.582 2165.338, 3506.295 2164.084, 3515.948 2159.458 C 3533.644 2150.977, 3544.930 2131.446, 3544.983 2109.208 C 3545.090 2064.124, 3502.815 2023.758, 3460.978 2028.997 M 3458.500 2059.814 C 3453.490 2062.160, 3447.664 2068.534, 3445.881 2073.619 C 3445.132 2075.754, 3444.551 2081.100, 3444.588 2085.500 C 3444.745 2103.922, 3457.829 2123.250, 3475.990 2131.888 C 3482.483 2134.976, 3484.480 2135.453, 3490.990 2135.475 C 3500.310 2135.506, 3505.982 2132.738, 3510.543 2125.934 C 3517.614 2115.384, 3517.422 2102.495, 3509.966 2087.286 C 3501.726 2070.479, 3485.687 2058.799, 3470.052 2058.220 C 3464.318 2058.008, 3461.537 2058.392, 3458.500 2059.814 M 3277.500 2080.022 C 3250.843 2085.373, 3233.600 2109.509, 3235.366 2139 C 3237.341 2171.954, 3259.624 2201.422, 3290.806 2212.314 C 3298.390 2214.963, 3300.905 2215.357, 3310.500 2215.403 C 3323.675 2215.467, 3331.350 2213.513, 3340.076 2207.873 C 3356.438 2197.297, 3364.960 2180.743, 3364.978 2159.500 C 3365.005 2128.962, 3346.113 2099.658, 3317.500 2085.855 C 3304.916 2079.784, 3289.723 2077.569, 3277.500 2080.022 M 3281.222 2109.410 C 3265.835 2114.430, 3260.211 2132.122, 3267.843 2151.500 C 3275.584 2171.156, 3292.355 2184.889, 3309.765 2185.828 C 3316.049 2186.167, 3317.753 2185.866, 3322.386 2183.599 C 3328.493 2180.612, 3332.193 2175.981, 3334.469 2168.475 C 3337.239 2159.344, 3335.975 2150.071, 3330.345 2138.207 C 3320.800 2118.096, 3297.130 2104.220, 3281.222 2109.410 M 3098.272 2126.437 C 3072.856 2132.595, 3056.590 2156.392, 3058.303 2184.912 C 3059.042 2197.226, 3060.934 2204.302, 3066.543 2215.736 C 3088.771 2261.049, 3143.835 2276.600, 3172.644 2245.701 C 3179.875 2237.945, 3183.458 2231.441, 3186.022 2221.415 C 3197.612 2176.099, 3157.561 2124.682, 3111 2125.102 C 3106.875 2125.140, 3101.147 2125.740, 3098.272 2126.437 M 3104.222 2155.410 C 3094.832 2158.473, 3088.846 2166.378, 3087.449 2177.560 C 3085.965 2189.437, 3092.912 2206.717, 3103.483 2217.446 C 3114.842 2228.974, 3131.339 2234.683, 3142.575 2230.975 C 3149.048 2228.839, 3154.713 2222.670, 3156.999 2215.268 C 3159.398 2207.502, 3159.498 2203.370, 3157.478 2195.460 C 3154.869 2185.239, 3150.301 2177.266, 3142.527 2169.365 C 3130.598 2157.241, 3115.485 2151.735, 3104.222 2155.410 M 2900.112 2172.515 C 2871.682 2180.506, 2855.955 2209.538, 2862.584 2241.792 C 2866.081 2258.807, 2874.658 2273.726, 2888.448 2286.779 C 2895.229 2293.198, 2898.934 2295.772, 2907.199 2299.807 C 2919.643 2305.881, 2925.685 2307.391, 2937.500 2307.382 C 2957.620 2307.365, 2975.130 2297.221, 2984.272 2280.284 C 2992.945 2264.217, 2993.094 2240.700, 2984.649 2220.995 C 2980.139 2210.472, 2974.800 2202.714, 2966.043 2193.957 C 2956.587 2184.501, 2948.978 2179.484, 2937.500 2175.138 C 2929.556 2172.130, 2927.151 2171.688, 2917 2171.366 C 2908.802 2171.106, 2903.953 2171.436, 2900.112 2172.515 M 2907.994 2200.934 C 2896.386 2204.465, 2890.526 2213.439, 2890.646 2227.500 C 2890.763 2241.163, 2896.676 2253.570, 2908.466 2264.892 C 2919.280 2275.277, 2933.680 2280.057, 2945 2277.021 C 2951.628 2275.243, 2958.123 2268.185, 2960.313 2260.382 C 2962.380 2253.015, 2962.408 2249.356, 2960.460 2241.093 C 2957.477 2228.435, 2947.281 2214.239, 2935.955 2206.971 C 2927.113 2201.297, 2915.233 2198.732, 2907.994 2200.934 M 2719.275 2211.539 C 2700.412 2216.620, 2686.142 2231.565, 2681.549 2251.053 C 2679.583 2259.396, 2679.591 2272.076, 2681.569 2281.792 C 2683.645 2291.987, 2691.232 2307.693, 2698.418 2316.671 C 2708.757 2329.586, 2725.255 2340.629, 2740.092 2344.562 C 2749.354 2347.018, 2764.623 2346.815, 2773.072 2344.123 C 2796.723 2336.589, 2811.541 2313.076, 2809.681 2286.035 C 2808.880 2274.400, 2806.870 2267.276, 2801.066 2255.500 C 2787.355 2227.686, 2760.677 2209.854, 2733.090 2210.066 C 2728.366 2210.102, 2722.149 2210.765, 2719.275 2211.539 M 838.209 2364.676 C 767.704 2448.647, 710.126 2517.449, 710.259 2517.568 C 710.392 2517.687, 761.005 2510.520, 822.734 2501.642 L 934.968 2485.500 938.369 2482 C 946.190 2473.953, 1164.055 2220.722, 1163.573 2220.239 C 1163.133 2219.799, 982.971 2212.146, 970.450 2212.036 L 966.401 2212 838.209 2364.676 M 2724.323 2240.638 C 2721.940 2241.482, 2718.419 2243.992, 2716.123 2246.482 C 2696.794 2267.452, 2721.170 2313.847, 2753.035 2316.737 C 2767.465 2318.045, 2776.667 2310.938, 2780.007 2295.902 C 2782.599 2284.233, 2776.691 2267.409, 2765.846 2255.573 C 2753.288 2241.868, 2737.191 2236.078, 2724.323 2240.638 M 2546.387 2250.961 C 2523.732 2254.448, 2507.427 2270.411, 2502.390 2294.035 C 2500.556 2302.637, 2501.011 2315.837, 2503.475 2325.500 C 2505.675 2334.126, 2514.051 2350.467, 2520.030 2357.796 C 2541.513 2384.133, 2575.957 2394.145, 2602 2381.625 C 2609.770 2377.889, 2620.209 2367.905, 2624.272 2360.322 C 2630.615 2348.483, 2632.626 2330.902, 2629.431 2315.208 C 2627.355 2305.013, 2619.768 2289.307, 2612.582 2280.329 C 2595.921 2259.515, 2568.848 2247.504, 2546.387 2250.961 M 2544.491 2281.865 C 2534.144 2286.566, 2528.625 2299.185, 2530.962 2312.801 C 2532.444 2321.435, 2538.581 2334.031, 2544.662 2340.916 C 2554.135 2351.642, 2569.750 2358.954, 2580.217 2357.566 C 2590.327 2356.225, 2596.192 2351.398, 2600.026 2341.266 C 2606.246 2324.828, 2595.635 2299.581, 2577.428 2287.496 C 2566.525 2280.259, 2553.085 2277.961, 2544.491 2281.865 M 2361.634 2284.586 C 2343.344 2289.014, 2328.603 2304.071, 2323.543 2323.495 C 2321.747 2330.393, 2321.526 2345.054, 2323.091 2353.566 C 2326.503 2372.127, 2339.388 2392.545, 2355.301 2404.605 C 2367.408 2413.782, 2384.832 2420.027, 2398.208 2419.983 C 2417.912 2419.918, 2436.025 2409.137, 2444.813 2392.241 C 2458.616 2365.705, 2451.429 2330.892, 2427.033 2306.115 C 2409.014 2287.813, 2383.289 2279.345, 2361.634 2284.586 M 2191.528 2313.008 C 2172.750 2316.369, 2157.336 2329.451, 2150.888 2347.500 C 2147.863 2355.970, 2147.128 2374.983, 2149.427 2385.317 C 2151.290 2393.690, 2156.954 2406.111, 2162.853 2414.757 C 2169.586 2424.626, 2182.962 2436.409, 2193.507 2441.759 C 2205.543 2447.867, 2222.776 2450.471, 2235.184 2448.058 C 2254.355 2444.330, 2269.573 2429.812, 2275.601 2409.500 C 2278.108 2401.054, 2277.907 2384.086, 2275.178 2373.864 C 2269.095 2351.074, 2252.258 2330.213, 2231.500 2319.748 C 2219.791 2313.845, 2202.830 2310.985, 2191.528 2313.008 M 2369.500 2312.935 C 2354.942 2316.479, 2347.518 2332.789, 2352.596 2350.068 C 2359.004 2371.869, 2377.122 2388.602, 2395.603 2389.788 C 2404.027 2390.329, 2408.799 2388.993, 2413.645 2384.739 C 2425.533 2374.300, 2425.205 2353.515, 2412.859 2335.027 C 2402.400 2319.365, 2383.224 2309.594, 2369.500 2312.935 M 2018 2339.886 C 2004.079 2344.387, 1993.406 2353.442, 1987.047 2366.146 C 1981.842 2376.546, 1980.674 2382.829, 1981.230 2397.457 C 1981.601 2407.228, 1982.221 2411.082, 1984.521 2417.885 C 1987.585 2426.952, 1994.215 2438.757, 2000.536 2446.400 C 2010.109 2457.975, 2027.542 2469.012, 2041.924 2472.601 C 2051.131 2474.899, 2068.442 2474.144, 2076.236 2471.104 C 2092.955 2464.583, 2104.634 2451.029, 2109.067 2433 C 2110.923 2425.456, 2110.660 2409.088, 2108.546 2400.500 C 2104.573 2384.365, 2093.045 2366.049, 2080.137 2355.363 C 2072.584 2349.110, 2058.344 2341.730, 2049.540 2339.506 C 2041.262 2337.414, 2025.040 2337.610, 2018 2339.886 M 2196.753 2342.130 C 2184.673 2343.920, 2177 2354.224, 2177 2368.657 C 2177 2381.257, 2183.072 2394.333, 2193.888 2405.025 C 2218.504 2429.359, 2248.068 2422.083, 2247.979 2391.712 C 2247.901 2365.107, 2220.524 2338.608, 2196.753 2342.130 M 1846.585 2354.119 C 1839.209 2355.849, 1829.646 2361.373, 1823.420 2367.500 C 1809.081 2381.611, 1803.664 2404.959, 1809.499 2427.500 C 1811.318 2434.528, 1817.609 2448.118, 1821.993 2454.490 C 1831.166 2467.822, 1846.255 2479.638, 1861.176 2485.174 C 1871.082 2488.849, 1886.376 2490.111, 1895.855 2488.035 C 1915.180 2483.804, 1930.331 2468.703, 1935.478 2448.540 C 1937.445 2440.838, 1937.424 2425.842, 1935.434 2416.697 C 1933.239 2406.609, 1924.348 2389.043, 1917.262 2380.792 C 1906.290 2368.019, 1891.183 2358.275, 1876.540 2354.526 C 1869.976 2352.845, 1852.998 2352.615, 1846.585 2354.119 M 1676 2358.053 C 1667.586 2359.494, 1655.145 2366.073, 1648.760 2372.457 C 1638.273 2382.945, 1633.041 2396.777, 1633.015 2414.090 C 1632.953 2454.143, 1666.814 2491.507, 1705.216 2493.762 C 1725.430 2494.949, 1742.275 2487.021, 1753.216 2471.172 C 1769.971 2446.900, 1764.100 2408.422, 1739.653 2382.288 C 1729.492 2371.426, 1714.438 2362.193, 1701.974 2359.179 C 1695.231 2357.548, 1682.237 2356.985, 1676 2358.053 M 2023.168 2369.603 C 2017.080 2372.638, 2013.398 2377.026, 2011.416 2383.614 C 2004.291 2407.289, 2024.832 2438.708, 2051 2444.159 C 2077.438 2449.667, 2090.198 2420.347, 2073.482 2392.500 C 2061.312 2372.226, 2038.625 2361.901, 2023.168 2369.603 M 1850.491 2383.865 C 1840.141 2388.567, 1834.582 2401.507, 1837.017 2415.232 C 1842.237 2444.653, 1874.094 2467.665, 1894.906 2457.048 C 1913.017 2447.808, 1911.792 2418.485, 1892.397 2397.018 C 1881.347 2384.787, 1861.899 2378.683, 1850.491 2383.865 M 1681.753 2387.130 C 1656.563 2390.862, 1655.444 2427.997, 1679.821 2451.248 C 1694.795 2465.531, 1715.123 2468.725, 1725.351 2458.403 C 1729.141 2454.578, 1731.520 2449.706, 1732.926 2442.888 C 1735.065 2432.523, 1730.685 2418.284, 1721.732 2406.500 C 1711.505 2393.039, 1695.198 2385.138, 1681.753 2387.130 M 2880.500 2493.085 C 2675.498 2506.632, 2475.469 2531.604, 2320 2563.058 C 2303.775 2566.341, 2288.159 2569.583, 2285.297 2570.263 L 2280.095 2571.500 2267.897 2591 C 2134.825 2803.743, 1974.997 3029.132, 1817.607 3226 C 1651.041 3434.344, 1469.392 3633.820, 1318.127 3774.500 C 1304.384 3787.282, 1299.313 3792.570, 1300.636 3792.742 C 1301.661 3792.875, 1382.645 3789.681, 1480.600 3785.645 L 1658.699 3778.306 1666.600 3773.967 C 1725.574 3741.572, 1820.877 3673.787, 1910.702 3600.347 C 2047.052 3488.867, 2200.173 3343.195, 2352.015 3180.500 C 2529.370 2990.470, 2713.181 2769.463, 2900.935 2520.500 C 2912.134 2505.650, 2921.735 2492.938, 2922.271 2492.250 C 2923.571 2490.581, 2916.142 2490.730, 2880.500 2493.085 M 2827.872 2759.757 C 2754.066 2857.883, 2663.560 2971.071, 2586.697 3061.373 C 2577.393 3072.304, 2570.198 3081.529, 2570.707 3081.873 C 2571.216 3082.218, 2574.303 3084.576, 2577.566 3087.112 C 2612.996 3114.652, 2664.607 3136.002, 2716.066 3144.404 C 2746.459 3149.366, 2758.991 3150.282, 2788.920 3149.729 C 2826.717 3149.031, 2848.438 3145.986, 2879.788 3136.991 C 2970.926 3110.842, 3029.814 3043.888, 3040.101 2954.721 C 3041.619 2941.563, 3040.750 2907.186, 3038.605 2895.500 C 3030.944 2853.771, 3014.626 2821.228, 2987.024 2792.633 C 2954.273 2758.701, 2909.729 2736.593, 2856 2727.600 L 2852.500 2727.015 2827.872 2759.757 M 2902.075 2813.034 C 2870.386 2819.631, 2838.655 2846.806, 2819.053 2884.133 C 2811.939 2897.679, 2807.323 2909.685, 2803.445 2924.724 C 2791.306 2971.802, 2796.454 3018.522, 2817.544 3052.701 C 2823.857 3062.931, 2838.338 3077.432, 2847.601 3082.799 C 2889.588 3107.129, 2942.363 3088.415, 2976.762 3037 C 2989.571 3017.854, 2999.203 2994.202, 3004.658 2968.500 C 3007.229 2956.390, 3007.419 2953.857, 3007.434 2931.500 C 3007.449 2910.339, 3007.187 2906.295, 3005.219 2897.312 C 2999.290 2870.247, 2988.338 2849.232, 2972.055 2833.675 C 2962.938 2824.965, 2953.572 2819.167, 2942.500 2815.379 C 2935.516 2812.989, 2932.721 2812.608, 2920.500 2812.377 C 2912.800 2812.232, 2904.509 2812.528, 2902.075 2813.034 M 2876.297 2868.700 L 2874.095 2869.127 2877.020 2874.883 C 2885.920 2892.398, 2885.504 2922.658, 2875.968 2951.223 C 2867.055 2977.924, 2850.316 2998.167, 2835.144 3000.593 L 2831.105 3001.239 2833.803 3004.683 C 2841.989 3015.138, 2856.386 3021.650, 2869.343 3020.759 C 2896.507 3018.891, 2920.209 2994.132, 2930.188 2957.198 C 2933.093 2946.449, 2933.346 2921.709, 2930.655 2911.500 C 2926.551 2895.929, 2917.523 2881.847, 2907.304 2875.078 C 2898.841 2869.472, 2885.968 2866.824, 2876.297 2868.700 M 2425.300 3243.382 C 2423.068 3247.239, 2357.692 3315.385, 2314.518 3358.859 C 2239.163 3434.737, 2182.498 3488.207, 2114.750 3547.361 C 2106.648 3554.435, 2100.232 3560.566, 2100.491 3560.986 C 2101.217 3562.160, 2118.604 3575.072, 2127 3580.672 C 2162.543 3604.377, 2207.641 3623.206, 2253.500 3633.489 C 2296.778 3643.194, 2346.499 3644.703, 2383 3637.421 C 2404.783 3633.075, 2422.924 3627.012, 2441.256 3617.952 C 2481.430 3598.096, 2513.269 3566.424, 2533.265 3526.427 C 2550.715 3491.521, 2559.427 3448.170, 2556.058 3413 C 2549.264 3342.062, 2508.486 3284.371, 2439.795 3248.517 C 2432.927 3244.933, 2427.037 3242, 2426.704 3242 C 2426.371 3242, 2425.740 3242.622, 2425.300 3243.382 M 2426.814 3332.009 C 2396.381 3336.841, 2364.947 3356.364, 2342.302 3384.500 C 2313.970 3419.702, 2299.067 3460.162, 2299.022 3502 C 2298.975 3546.885, 2317.502 3581.564, 2349.212 3595.942 C 2367.651 3604.303, 2390.829 3605.034, 2412.314 3597.934 C 2456.397 3583.365, 2496.329 3539.895, 2513.869 3487.382 C 2519.808 3469.602, 2522.148 3456.298, 2522.739 3436.955 C 2523.519 3411.460, 2519.934 3393.504, 2510.339 3374.836 C 2499.724 3354.182, 2480.604 3338.488, 2460 3333.514 C 2452.017 3331.587, 2434.483 3330.792, 2426.814 3332.009 M 2394.214 3380.200 L 2387.928 3381.184 2392.301 3385.034 C 2410.813 3401.329, 2405.604 3450.652, 2381.460 3487.693 C 2371.803 3502.508, 2360.686 3512.102, 2348.619 3516.036 L 2343.590 3517.675 2348.078 3520.305 C 2358.516 3526.423, 2369.036 3528.136, 2380.809 3525.635 C 2413.884 3518.611, 2442.873 3482.213, 2446.872 3442.688 C 2450.913 3402.756, 2427.512 3374.987, 2394.214 3380.200" stroke="none" fill="#000000" fill-rule="evenodd"/>
</svg>